# xmcd
#
# Track frame offsets: 
#        150
#        15506
#        28930
#        40882
#        55308
#        65116
#        77080
#        91156
#        106176
#        116926
#        130567
#        143133
#        157011
#        167524
#        176283
#        190258
#        205494
#        220105
#
# Disc length: 3114 seconds
#
# Revision: 2
# Processed by: cddbd v1.5.2PL0 Copyright (c) Steve Scherf et al.
# Submitted via: ExactAudioCopy v0.95b4
#
DISCID=f80c2812
DTITLE=Γιάννης Πουλόπουλος - Τα Τραγούδια μου  CD 1
DYEAR=1998
DGENRE=Ελαφρά Λαϊκά
TTITLE0=Το άγαλμα
TTITLE1=Νά 'χα τη δύναμη
TTITLE2=Ποιά νύχτα σ' έκλεψε
TTITLE3=Μέθυσε απόψε το καρίτσι μου
TTITLE4=12 Μαντολίνα
TTITLE5=Στο Κερατσίνι
TTITLE6=Γίνανε τα χρόνια βόλια
TTITLE7=Το ψωμί είναι στο τραπέζι
TTITLE8=Έξι φεγγάρια
TTITLE9=Τι έχεις και δακρύζεις
TTITLE10=Του αγοριού η καρδιά
TTITLE11=Γλυκειά μου αγάπη
TTITLE12=Μικρός διαβάτης
TTITLE13=Ενα κορίτσι της προκοπής
TTITLE14=Φεύγεις για τα ξένα
TTITLE15=Στράτα τη στράτα
TTITLE16=Να 'μουν αγέρας
TTITLE17=Απόψε αντάμωσα τον χάρο
EXTD=YEAR: 1998
EXTT0=
EXTT1=
EXTT2=
EXTT3=
EXTT4=
EXTT5=
EXTT6=
EXTT7=
EXTT8=
EXTT9=
EXTT10=
EXTT11=
EXTT12=
EXTT13=
EXTT14=
EXTT15=
EXTT16=
EXTT17=
PLAYORDER=
